<svg width="22" height="22" viewBox="0 0 22 22" fill="none" xmlns="http://www.w3.org/2000/svg">
<rect width="22" height="22" rx="3" fill="#93C94A"/>
<path d="M5.99338 13.208C5.96138 16.024 8.32938 17.272 10.8574 17.272C13.9614 17.272 15.6094 15.704 15.6094 13.608C15.6094 11.016 13.0494 10.488 12.2174 10.28C9.35338 9.544 8.80938 9.432 8.80938 8.552C8.80938 7.592 9.73738 7.256 10.5374 7.256C11.7374 7.256 12.7134 7.608 12.7934 8.984H15.2254C15.2254 6.344 13.0334 5.304 10.6494 5.304C8.58538 5.304 6.37738 6.424 6.37738 8.76C6.37738 10.904 8.08938 11.56 9.78538 12.008C11.4654 12.456 13.1774 12.664 13.1774 13.896C13.1774 15.064 11.8334 15.32 10.9534 15.32C9.60938 15.32 8.42538 14.728 8.42538 13.208H5.99338Z" fill="white"/>
</svg>
