<svg width="22" height="22" viewBox="0 0 22 22" fill="none" xmlns="http://www.w3.org/2000/svg">
<rect width="22" height="22" rx="3" fill="#C1C1C1"/>
<path d="M15.2 11.6V13.4L13.4 11.6H9.8C9.48174 11.6 9.17652 11.4736 8.95147 11.2485C8.72643 11.0235 8.6 10.7183 8.6 10.4V6.2C8.6 5.54 9.14 5 9.8 5H15.8C16.1183 5 16.4235 5.12643 16.6485 5.35147C16.8736 5.57652 17 5.88174 17 6.2V10.4C17 10.7183 16.8736 11.0235 16.6485 11.2485C16.4235 11.4736 16.1183 11.6 15.8 11.6H15.2ZM13.4 12.8V14C13.4 14.3183 13.2736 14.6235 13.0485 14.8485C12.8235 15.0736 12.5183 15.2 12.2 15.2H8.6L6.8 17V15.2H6.2C5.88174 15.2 5.57652 15.0736 5.35147 14.8485C5.12643 14.6235 5 14.3183 5 14V9.8C5 9.14 5.54 8.6 6.2 8.6H7.4V10.4C7.4 11.0365 7.65286 11.647 8.10294 12.0971C8.55303 12.5471 9.16348 12.8 9.8 12.8H13.4Z" fill="white"/>
</svg>
